<svg version="1.0" xmlns="http://www.w3.org/2000/svg" viewBox="0 0 24 24" >
<path d="M21.98,3.3c-1.24-1.51-3.08-2.4-5.04-2.42c-1.16,0-2.3,0.33-3.29,0.93C13.04,2.18,12.48,2.65,12,3.2
	c-0.48-0.54-1.04-1.01-1.66-1.39C9.35,1.2,8.22,0.88,7.05,0.88C5.1,0.9,3.25,1.78,2.02,3.3C0.69,4.89-0.02,6.89,0,8.96
	c-0.03,2.12,0.72,4.17,2.1,5.77c0.04,0.05,0.08,0.1,0.13,0.15l0.11,0.11c0.13,0.13,0.26,0.26,0.39,0.38l7.39,7.07
	c0.46,0.45,1.08,0.69,1.72,0.69c0.64,0,1.26-0.25,1.72-0.69l4.91-4.7l2.2-1.92c1.02-0.75,1.84-1.74,2.4-2.88
	c0.6-1.24,0.91-2.6,0.91-3.97C24.02,6.89,23.31,4.88,21.98,3.3z M3.33,11.23c0-0.44,0.36-0.8,0.8-0.8c0,0,0,0,0,0h2.54l1.97-3.88
	C8.84,6.16,9.32,6,9.71,6.2c0.15,0.07,0.26,0.19,0.34,0.33l3.34,6.04l2.93-3.3C16.48,9.1,16.7,9,16.92,9h2.95
	c0.44,0,0.8,0.36,0.8,0.8c0,0.44-0.36,0.8-0.8,0.8h-2.59l-3.45,3.88c-0.15,0.17-0.37,0.27-0.6,0.27v0c-0.29,0-0.56-0.16-0.7-0.41
	L9.38,8.63L7.88,11.6c-0.14,0.27-0.41,0.44-0.71,0.44H4.13C3.69,12.03,3.33,11.68,3.33,11.23z"/>
</svg>
